HIERARCHY
ROOT root
{
	OFFSET 0.000000 0.000000 0.000000
	CHANNELS 6 Xposition Yposition Zposition Zrotation Yrotation Xrotation
	JOINT lhip
	{
		OFFSET 0.058581 -0.082280 -0.017664
		CHANNELS 3 Zrotation Yrotation Xrotation
		JOINT lknee
		{
			OFFSET 0.043451 -0.386469 0.008037
			CHANNELS 3 Zrotation Yrotation Xrotation
			JOINT lankle
			{
				OFFSET -0.014790 -0.426874 -0.037428
				CHANNELS 3 Zrotation Yrotation Xrotation
				JOINT ltoe
				{
					OFFSET 0.041054 -0.060286 0.122042
					CHANNELS 3 Zrotation Yrotation Xrotation
					End Site
					{
						OFFSET 0.000000 0.000000 0.000000
					}
				}
			}
		}
	}
	JOINT rhip
	{
		OFFSET -0.060310 -0.090513 -0.013543
		CHANNELS 3 Zrotation Yrotation Xrotation
		JOINT rknee
		{
			OFFSET -0.043257 -0.383688 -0.004843
			CHANNELS 3 Zrotation Yrotation Xrotation
			JOINT rankle
			{
				OFFSET 0.019056 -0.420046 -0.034562
				CHANNELS 3 Zrotation Yrotation Xrotation
				JOINT rtoe
				{
					OFFSET -0.034840 -0.062106 0.130323
					CHANNELS 3 Zrotation Yrotation Xrotation
					End Site
					{
						OFFSET 0.000000 0.000000 0.000000
					}
				}
			}
		}
	}
	JOINT lowerback
	{
		OFFSET 0.004439 0.124404 -0.038385
		CHANNELS 3 Zrotation Yrotation Xrotation
		JOINT upperback
		{
			OFFSET 0.004488 0.137956 0.026820
			CHANNELS 3 Zrotation Yrotation Xrotation
			JOINT chest
			{
				OFFSET -0.002265 0.056032 0.002855
				CHANNELS 3 Zrotation Yrotation Xrotation
				JOINT lowerneck
				{
					OFFSET -0.013390 0.211636 -0.033468
					CHANNELS 3 Zrotation Yrotation Xrotation
					JOINT upperneck
					{
						OFFSET 0.010113 0.088937 0.050410
						CHANNELS 3 Zrotation Yrotation Xrotation
						End Site
						{
							OFFSET 0.000000 0.000000 0.000000
						}
					}
				}
				JOINT lclavicle
				{
					OFFSET 0.071702 0.114000 -0.018898
					CHANNELS 3 Zrotation Yrotation Xrotation
					JOINT lshoulder
					{
						OFFSET 0.122921 0.045205 -0.019046
						CHANNELS 3 Zrotation Yrotation Xrotation
						JOINT lelbow
						{
							OFFSET 0.255332 -0.015649 -0.022946
							CHANNELS 3 Zrotation Yrotation Xrotation
							JOINT lwrist
							{
								OFFSET 0.265709 0.012698 -0.007375
								CHANNELS 3 Zrotation Yrotation Xrotation
								End Site
								{
									OFFSET 0.000000 0.000000 0.000000
								}
							}
						}
					}
				}
				JOINT rclavicle
				{
					OFFSET -0.082954 0.112472 -0.023707
					CHANNELS 3 Zrotation Yrotation Xrotation
					JOINT rshoulder
					{
						OFFSET -0.113228 0.046853 -0.008472
						CHANNELS 3 Zrotation Yrotation Xrotation
						JOINT relbow
						{
							OFFSET -0.260127 -0.014369 -0.031269
							CHANNELS 3 Zrotation Yrotation Xrotation
							JOINT rwrist
							{
								OFFSET -0.269108 0.006794 -0.006027
								CHANNELS 3 Zrotation Yrotation Xrotation
								End Site
								{
									OFFSET 0.000000 0.000000 0.000000
								}
							}
						}
					}
				}
			}
		}
	}
}
MOTION
Frames: 7
Frame Time: 0.033333
-1.407805 0.339399 0.498003 -44.304184 40.461011 78.276954 16.754917 23.653031 -53.067257 -11.087111 25.455445 131.725568 -5.816752 -15.059824 -20.600272 0.000000 -0.000000 0.000000 -11.607323 -20.612020 -80.272235 -3.595217 -39.324379 86.213376 14.448580 4.457689 6.252142 0.000000 -0.000000 0.000000 7.528766 -6.990201 73.972879 3.766372 -1.758609 -5.656621 5.088300 -2.962807 -1.992685 6.111918 -14.448126 2.816438 19.226584 -0.670238 -16.126075 -16.963483 -28.733816 5.615487 -35.889441 4.834052 1.312115 10.298826 -33.133832 3.036327 46.970881 -28.609651 5.645120 -1.367695 29.223445 -5.089681 11.245661 3.003615 -18.700932 -65.710842 60.617928 -58.405639 -9.648697 11.387276 -9.999171 
-1.463775 0.347576 0.521990 -37.676895 34.460083 82.748904 15.003826 20.966206 -52.614522 -10.704304 23.949393 132.386534 -4.525145 -12.785037 -20.286673 0.000000 -0.000000 0.000000 -10.369934 -17.434365 -79.933819 -4.561381 -36.550939 87.005743 3.688800 -1.468710 1.994689 0.000000 -0.000000 0.000000 6.806320 -6.903644 74.759956 4.539213 -3.434718 -6.531494 5.058708 -4.022476 -1.726203 6.464420 -14.253796 0.165358 20.252798 -2.102266 -15.983676 -19.133389 -31.619039 7.404756 -30.689103 4.027389 1.185356 5.298240 -24.324948 2.143382 45.319811 -28.135284 4.172459 1.922548 29.667217 -4.524711 12.511440 1.671006 -16.464986 -67.927535 58.830921 -60.094147 -8.751786 11.297373 -11.352929 
-1.518760 0.354407 0.544727 -32.408799 29.680263 85.930262 13.750187 18.573604 -51.808088 -10.857502 21.755898 132.023641 -3.503662 -10.273863 -21.162465 0.000000 -0.000000 0.000000 -10.964188 -15.618350 -80.856253 -5.405675 -34.350038 89.042095 -3.667385 -6.212817 -1.127111 0.000000 -0.000000 0.000000 6.979531 -7.596348 75.375502 5.251612 -4.245150 -7.797100 5.227980 -4.701913 -1.636015 6.266495 -13.802675 -2.246023 20.565210 -3.959051 -16.449914 -19.662510 -34.225858 8.477595 -28.302554 2.515484 0.895693 0.373132 -16.867348 1.808810 39.655416 -25.649850 5.081340 4.224904 30.339927 -3.459514 13.410112 1.035431 -15.307781 -67.555973 56.817277 -59.474044 -7.576937 10.889132 -11.554710 
-1.567948 0.360111 0.570722 -29.819163 26.782731 87.759474 13.887577 16.645751 -49.554445 -11.734688 19.262380 129.947008 -3.007333 -8.683492 -24.032595 0.000000 -0.000000 0.000000 -11.994555 -13.337709 -81.773784 -7.473819 -33.917625 92.103196 -4.758837 -7.939554 -4.213556 0.000000 -0.000000 0.000000 7.010862 -8.645973 75.715020 5.490652 -3.333191 -8.072130 5.593321 -4.293450 -2.353323 5.587483 -12.905811 -4.521472 19.508293 -6.014493 -17.009608 -20.176974 -36.143625 8.634361 -27.924586 1.028505 0.637256 -1.519288 -12.496327 0.250479 31.364059 -22.434985 10.252010 6.103887 31.792656 -2.500928 13.217214 0.930160 -14.692729 -65.174112 55.038415 -56.959675 -6.000664 10.734876 -9.790711 
-1.611679 0.363761 0.601378 -28.067420 23.906077 89.159032 13.213435 14.199711 -46.268489 -11.647536 16.242069 126.429802 -1.741957 -6.192005 -27.887748 0.000000 -0.000000 0.000000 -11.229927 -11.889085 -80.243843 -7.909191 -33.628347 92.191907 -6.636905 -8.662768 -8.639748 0.000000 -0.000000 0.000000 7.414390 -9.521286 75.160226 5.553233 -2.766863 -7.829203 6.032149 -3.833564 -3.169225 5.307905 -12.236544 -7.155594 18.169858 -7.938143 -16.584894 -21.277168 -36.607206 8.074040 -28.093735 -0.575080 -0.517459 -0.240037 -13.627258 -1.194579 18.347463 -15.910988 16.186355 8.439381 33.026781 -1.311819 12.912184 1.578352 -15.014889 -61.909920 54.222567 -53.443598 -3.734279 10.120606 -8.323700 
-1.648675 0.365222 0.634543 -27.934200 19.780544 90.377199 10.696168 11.641746 -43.168984 -9.994211 14.052940 121.517145 -0.272330 -2.519429 -30.714595 0.000000 -0.000000 0.000000 -10.896881 -11.588306 -78.703195 -8.436015 -33.203091 91.882411 -6.551931 -7.373442 -12.244029 0.000000 -0.000000 0.000000 8.039178 -9.488094 73.290191 4.790388 -2.631804 -7.869567 5.817370 -3.725316 -3.829880 5.257629 -11.727385 -9.569241 17.227984 -9.878276 -16.274289 -21.022082 -36.406080 6.896527 -29.451394 -3.407982 -1.929747 2.412319 -17.101984 -2.245805 4.026644 -9.768032 16.789621 9.422278 32.793925 -0.189413 15.891975 2.626543 -14.971808 -59.767477 53.241489 -50.112191 -1.788426 9.255397 -8.374462 
-1.680455 0.364726 0.672321 -29.698186 16.147538 91.298774 8.342765 9.994902 -39.757934 -8.393515 13.028323 114.871056 1.147173 1.936983 -32.528824 0.000000 -0.000000 0.000000 -9.671198 -10.458147 -76.100215 -7.919234 -33.123921 89.008884 -6.465520 -6.005172 -15.841733 0.000000 -0.000000 0.000000 8.156914 -8.987258 71.286524 3.719756 -2.077725 -8.430933 5.285126 -3.419974 -3.739499 4.708484 -11.014660 -12.955977 16.011242 -12.131977 -14.870619 -20.025496 -35.790658 5.249585 -32.536309 -6.216508 -1.313584 4.668482 -18.930077 -3.319434 1.013194 -9.565554 13.651755 9.823734 32.204824 -0.029967 19.797155 4.149786 -13.456957 -57.172163 52.326907 -45.663603 -1.384291 9.181350 -7.949955 
